<?xml version="1.0" encoding="UTF-8"?><svg id="Layer_2" xmlns="http://www.w3.org/2000/svg" viewBox="0 0 102.2 142.27"><defs><style>.cls-1{fill:#231f20;}</style></defs><g id="Layer_2-2"><path class="cls-1" d="m102.2,29.89l-31.6-21.14-18.58,28.36L34.31,0,0,16.38l27.96,57.46-15.53,23.71-3.27,38.14,34.02-17.58,3.66-5.47,14.41,29.63,33.37-15.93-23.71-49.68,31.29-46.77Zm-30.19-14.18l23.25,15.56-7.23,10.81-23.15-15.49,7.12-10.88ZM26.39,59.19l5.55-2.65-2.15-4.51-5.58,2.66-4.38-8.99,11.97-5.71-2.15-4.51-12,5.73-4.38-8.99,5.75-2.74-2.15-4.51-5.78,2.76-4.38-8.99L31.95,6.67l16.87,35.33-17.67,26.97-4.76-9.79Zm13.35,55.08l-24.83,12.83,2.39-27.86L62.15,30.77l23.11,15.46-45.52,68.03Zm48.22,9.72l-24.38,11.64-4.44-9.12,11.36-5.43-2.15-4.51-11.4,5.44-4.38-8.99,5.15-2.46-2.15-4.51-5.18,2.47-.33-.68,17.62-26.34,20.28,42.48Z"/></g></svg>